# Blender v2.72 (sub 0) OBJ File: ''
# www.blender.org
mtllib quad_box_noSphere.mtl
o Cube
v 1.000000 -1.000000 -1.000000
v 1.000000 -1.000000 1.000000
v -1.000000 -1.000000 1.000000
v -1.000000 -1.000000 -1.000000
v 1.000000 1.000000 -0.999999
v 0.999999 1.000000 1.000001
v -1.000000 1.000000 1.000000
v -1.000000 1.000000 -1.000000
v 1.000000 -1.000000 0.000000
v 0.000000 -1.000000 -1.000000
v 1.000000 0.000000 -1.000000
v 0.000000 -1.000000 1.000000
v 1.000000 0.000000 1.000000
v -1.000000 -1.000000 -0.000000
v -1.000000 0.000000 1.000000
v -1.000000 0.000000 -1.000000
v 1.000000 1.000000 0.000001
v 0.000000 1.000000 -1.000000
v -0.000001 1.000000 1.000000
v -1.000000 1.000000 -0.000000
v 0.000000 -1.000000 -0.000000
v -0.000000 1.000000 0.000000
v 1.000000 0.000000 0.000000
v -0.000000 0.000000 1.000000
v -1.000000 0.000000 -0.000000
v 0.000000 0.000000 -1.000000
v 1.000000 -1.000000 0.500000
v -0.500000 -1.000000 -1.000000
v 1.000000 0.500000 -1.000000
v -0.500000 -1.000000 1.000000
v 1.000000 0.500000 1.000000
v -1.000000 -1.000000 -0.500000
v -1.000000 0.500000 1.000000
v -1.000000 0.500000 -1.000000
v 1.000000 1.000000 0.500001
v -0.500000 1.000000 -1.000000
v -0.500000 1.000000 1.000000
v -1.000000 1.000000 -0.500000
v 1.000000 -1.000000 -0.500000
v 0.500000 -1.000000 -1.000000
v 1.000000 -0.500000 -1.000000
v 0.500000 -1.000000 1.000000
v 1.000000 -0.500000 1.000000
v -1.000000 -1.000000 0.500000
v -1.000000 -0.500000 1.000000
v -1.000000 -0.500000 -1.000000
v 1.000000 1.000000 -0.499999
v 0.500000 1.000000 -1.000000
v 0.499999 1.000000 1.000000
v -1.000000 1.000000 0.500000
v 0.000000 -1.000000 0.500000
v 0.000000 -1.000000 -0.500000
v 0.500000 -1.000000 -0.000000
v -0.500000 -1.000000 -0.000000
v -0.500000 1.000000 0.000000
v 0.500000 1.000000 0.000000
v 0.000000 1.000000 -0.500000
v -0.000000 1.000000 0.500000
v 1.000000 0.500000 0.000000
v 1.000000 -0.500000 0.000000
v 1.000000 0.000000 -0.500000
v 1.000000 0.000000 0.500000
v -0.000000 0.500000 1.000000
v -0.000000 -0.500000 1.000000
v 0.500000 0.000000 1.000000
v -0.500000 0.000000 1.000000
v -1.000000 0.500000 -0.000000
v -1.000000 -0.500000 -0.000000
v -1.000000 0.000000 0.500000
v -1.000000 0.000000 -0.500000
v 0.000000 -0.500000 -1.000000
v 0.000000 0.500000 -1.000000
v 0.500000 0.000000 -1.000000
v -0.500000 0.000000 -1.000000
v -0.500000 -1.000000 0.500000
v -0.500000 1.000000 0.500000
v 1.000000 0.500000 0.500000
v -0.500000 0.500000 1.000000
v -1.000000 0.500000 -0.500000
v -0.500000 -0.500000 -1.000000
v 0.500000 -1.000000 0.500000
v 0.500000 -1.000000 -0.500000
v -0.500000 -1.000000 -0.500000
v -0.500000 1.000000 -0.500000
v 0.500000 1.000000 -0.500000
v 0.500000 1.000000 0.500000
v 1.000000 0.500000 -0.500000
v 1.000000 -0.500000 -0.500000
v 1.000000 -0.500000 0.500000
v 0.500000 0.500000 1.000000
v 0.500000 -0.500000 1.000000
v -0.500000 -0.500000 1.000000
v -1.000000 0.500000 0.500000
v -1.000000 -0.500000 0.500000
v -1.000000 -0.500000 -0.500000
v 0.500000 -0.500000 -1.000000
v 0.500000 0.500000 -1.000000
v -0.500000 0.500000 -1.000000
vn -1.000000 0.000000 -0.000000
vn 0.000000 1.000000 0.000000
vn 0.000000 -1.000000 0.000000
vn 1.000000 0.000000 0.000000
vn 0.000000 -0.000000 1.000000
vn 0.000000 -0.000000 -1.000000
usemtl Light
s off
f 61//1 23//1 59//1 87//1
usemtl WhiteWall
f 75//2 44//2 3//2 30//2
f 76//3 37//3 7//3 50//3
f 77//1 31//1 6//1 35//1
f 79//4 34//4 8//4 38//4
f 81//2 51//2 12//2 42//2
f 82//2 52//2 21//2 53//2
f 83//2 32//2 14//2 54//2
f 84//3 55//3 20//3 38//3
f 85//3 56//3 22//3 57//3
f 86//3 49//3 19//3 58//3
f 87//1 59//1 17//1 47//1
f 88//1 60//1 23//1 61//1
f 89//1 43//1 13//1 62//1
f 93//4 67//4 20//4 50//4
f 94//4 68//4 25//4 69//4
f 95//4 46//4 16//4 70//4
f 51//2 75//2 30//2 12//2
f 21//2 54//2 75//2 51//2
f 54//2 14//2 44//2 75//2
f 55//3 76//3 50//3 20//3
f 22//3 58//3 76//3 55//3
f 58//3 19//3 37//3 76//3
f 59//1 77//1 35//1 17//1
f 23//1 62//1 77//1 59//1
f 62//1 13//1 31//1 77//1
f 67//4 79//4 38//4 20//4
f 25//4 70//4 79//4 67//4
f 70//4 16//4 34//4 79//4
f 27//2 81//2 42//2 2//2
f 9//2 53//2 81//2 27//2
f 53//2 21//2 51//2 81//2
f 39//2 82//2 53//2 9//2
f 1//2 40//2 82//2 39//2
f 40//2 10//2 52//2 82//2
f 52//2 83//2 54//2 21//2
f 10//2 28//2 83//2 52//2
f 28//2 4//2 32//2 83//2
f 36//3 84//3 38//3 8//3
f 18//3 57//3 84//3 36//3
f 57//3 22//3 55//3 84//3
f 48//3 85//3 57//3 18//3
f 5//3 47//3 85//3 48//3
f 47//3 17//3 56//3 85//3
f 56//3 86//3 58//3 22//3
f 17//3 35//3 86//3 56//3
f 35//3 6//3 49//3 86//3
f 29//1 87//1 47//1 5//1
f 11//1 61//1 87//1 29//1
f 41//1 88//1 61//1 11//1
f 1//1 39//1 88//1 41//1
f 39//1 9//1 60//1 88//1
f 60//1 89//1 62//1 23//1
f 9//1 27//1 89//1 60//1
f 27//1 2//1 43//1 89//1
f 33//4 93//4 50//4 7//4
f 15//4 69//4 93//4 33//4
f 69//4 25//4 67//4 93//4
f 45//4 94//4 69//4 15//4
f 3//4 44//4 94//4 45//4
f 44//4 14//4 68//4 94//4
f 68//4 95//4 70//4 25//4
f 14//4 32//4 95//4 68//4
f 32//4 4//4 46//4 95//4
usemtl RedWall
f 80//5 46//5 4//5 28//5
f 96//5 71//5 10//5 40//5
f 97//5 72//5 26//5 73//5
f 98//5 34//5 16//5 74//5
f 71//5 80//5 28//5 10//5
f 26//5 74//5 80//5 71//5
f 74//5 16//5 46//5 80//5
f 41//5 96//5 40//5 1//5
f 11//5 73//5 96//5 41//5
f 73//5 26//5 71//5 96//5
f 29//5 97//5 73//5 11//5
f 5//5 48//5 97//5 29//5
f 48//5 18//5 72//5 97//5
f 72//5 98//5 74//5 26//5
f 18//5 36//5 98//5 72//5
f 36//5 8//5 34//5 98//5
usemtl BlueWall
f 78//6 33//6 7//6 37//6
f 90//6 63//6 19//6 49//6
f 91//6 64//6 24//6 65//6
f 92//6 45//6 15//6 66//6
f 63//6 78//6 37//6 19//6
f 24//6 66//6 78//6 63//6
f 66//6 15//6 33//6 78//6
f 31//6 90//6 49//6 6//6
f 13//6 65//6 90//6 31//6
f 65//6 24//6 63//6 90//6
f 43//6 91//6 65//6 13//6
f 2//6 42//6 91//6 43//6
f 42//6 12//6 64//6 91//6
f 64//6 92//6 66//6 24//6
f 12//6 30//6 92//6 64//6
f 30//6 3//6 45//6 92//6
