# Blender v2.72 (sub 0) OBJ File: ''
# www.blender.org
mtllib quad_box.mtl
o Icosphere
v -0.364334 -0.109522 -0.258169
v -0.118140 0.078552 -0.079300
v -0.458371 0.078552 0.031250
v -0.668647 0.078554 -0.258169
v -0.458371 0.078552 -0.547587
v -0.118140 0.078552 -0.437038
v -0.270298 0.382870 0.031250
v -0.610529 0.382870 -0.079300
v -0.610529 0.382870 -0.437038
v -0.270298 0.382870 -0.547587
v -0.060022 0.382868 -0.258169
v -0.364334 0.570943 -0.258169
v -0.419607 -0.058709 -0.088054
v -0.219626 -0.058709 -0.153033
v -0.274898 0.051838 0.017083
v -0.074916 0.051839 -0.258169
v -0.219626 -0.058709 -0.363305
v -0.543205 -0.058708 -0.258169
v -0.598479 0.051838 -0.088054
v -0.419607 -0.058709 -0.428284
v -0.598479 0.051838 -0.428284
v -0.274898 0.051838 -0.533421
v -0.040754 0.230711 -0.153033
v -0.040754 0.230711 -0.363305
v -0.364334 0.230711 0.082064
v -0.164351 0.230711 0.017085
v -0.687915 0.230711 -0.153033
v -0.564318 0.230711 0.017085
v -0.564318 0.230711 -0.533423
v -0.687915 0.230711 -0.363305
v -0.164351 0.230711 -0.533423
v -0.364334 0.230711 -0.598401
v -0.130190 0.409584 -0.088054
v -0.453771 0.409584 0.017083
v -0.653753 0.409583 -0.258169
v -0.453771 0.409584 -0.533421
v -0.130190 0.409584 -0.428284
v -0.309062 0.520131 -0.088054
v -0.185464 0.520130 -0.258169
v -0.509043 0.520131 -0.153033
v -0.509043 0.520131 -0.363305
v -0.309062 0.520131 -0.428284
vn 0.102400 -0.943500 0.315100
vn 0.700200 -0.661700 0.268000
vn -0.268000 -0.943500 0.194700
vn -0.268000 -0.943500 -0.194700
vn 0.102400 -0.943500 -0.315100
vn 0.905000 -0.330400 0.268000
vn 0.024700 -0.330400 0.943500
vn -0.889700 -0.330400 0.315100
vn -0.574600 -0.330400 -0.748800
vn 0.534600 -0.330400 -0.777900
vn 0.802600 -0.125600 0.583100
vn -0.306600 -0.125600 0.943500
vn -0.992100 -0.125600 0.000000
vn -0.306600 -0.125600 -0.943500
vn 0.802600 -0.125600 -0.583100
vn 0.408900 0.661700 0.628400
vn -0.471300 0.661700 0.583100
vn -0.700200 0.661700 -0.268000
vn 0.038500 0.661700 -0.748800
vn 0.724000 0.661700 -0.194700
vn -0.038500 -0.661700 0.748800
vn 0.187600 -0.794700 0.577300
vn 0.471300 -0.661700 0.583100
vn 0.700200 -0.661700 -0.268000
vn 0.607100 -0.794700 0.000000
vn 0.331300 -0.943500 0.000000
vn -0.724000 -0.661700 0.194700
vn -0.491100 -0.794700 0.356800
vn -0.408900 -0.661700 0.628400
vn -0.408900 -0.661700 -0.628400
vn -0.491100 -0.794700 -0.356800
vn -0.724000 -0.661700 -0.194700
vn 0.471300 -0.661700 -0.583100
vn 0.187600 -0.794700 -0.577300
vn -0.038500 -0.661700 -0.748800
vn 0.992100 0.125600 0.000000
vn 0.982200 -0.187600 0.000000
vn 0.905000 -0.330400 -0.268000
vn 0.306600 0.125600 0.943500
vn 0.303500 -0.187600 0.934200
vn 0.534600 -0.330400 0.777900
vn -0.802600 0.125600 0.583100
vn -0.794700 -0.187600 0.577300
vn -0.574600 -0.330400 0.748800
vn -0.802600 0.125600 -0.583100
vn -0.794700 -0.187600 -0.577300
vn -0.889700 -0.330400 -0.315100
vn 0.306600 0.125600 -0.943500
vn 0.303500 -0.187600 -0.934200
vn 0.024700 -0.330400 -0.943500
vn 0.574600 0.330400 0.748800
vn 0.794700 0.187600 0.577300
vn 0.889700 0.330400 0.315100
vn -0.534600 0.330400 0.777900
vn -0.303500 0.187600 0.934200
vn -0.024700 0.330400 0.943500
vn -0.905000 0.330400 -0.268000
vn -0.982200 0.187600 0.000000
vn -0.905000 0.330400 0.268000
vn -0.024700 0.330400 -0.943500
vn -0.303500 0.187600 -0.934200
vn -0.534600 0.330400 -0.777900
vn 0.889700 0.330400 -0.315100
vn 0.794700 0.187600 -0.577300
vn 0.574600 0.330400 -0.748800
vn 0.268000 0.943500 0.194700
vn 0.491100 0.794700 0.356800
vn 0.724000 0.661700 0.194700
vn -0.102400 0.943500 0.315100
vn -0.187600 0.794700 0.577300
vn 0.038500 0.661700 0.748800
vn -0.331300 0.943500 0.000000
vn -0.607100 0.794700 0.000000
vn -0.700200 0.661700 0.268000
vn -0.102400 0.943500 -0.315100
vn -0.187600 0.794700 -0.577300
vn -0.471300 0.661700 -0.583100
vn 0.268000 0.943500 -0.194700
vn 0.491100 0.794700 -0.356800
vn 0.408900 0.661700 -0.628400
usemtl Sphere
s off
f 1//1 14//1 13//1
f 2//2 14//2 16//2
f 1//3 13//3 18//3
f 1//4 18//4 20//4
f 1//5 20//5 17//5
f 2//6 16//6 23//6
f 3//7 15//7 25//7
f 4//8 19//8 27//8
f 5//9 21//9 29//9
f 6//10 22//10 31//10
f 2//11 23//11 26//11
f 3//12 25//12 28//12
f 4//13 27//13 30//13
f 5//14 29//14 32//14
f 6//15 31//15 24//15
f 7//16 33//16 38//16
f 8//17 34//17 40//17
f 9//18 35//18 41//18
f 10//19 36//19 42//19
f 11//20 37//20 39//20
f 13//21 15//21 3//21
f 13//22 14//22 15//22
f 14//23 2//23 15//23
f 16//24 17//24 6//24
f 16//25 14//25 17//25
f 14//26 1//26 17//26
f 18//27 19//27 4//27
f 18//28 13//28 19//28
f 13//29 3//29 19//29
f 20//30 21//30 5//30
f 20//31 18//31 21//31
f 18//32 4//32 21//32
f 17//33 22//33 6//33
f 17//34 20//34 22//34
f 20//35 5//35 22//35
f 23//36 24//36 11//36
f 23//37 16//37 24//37
f 16//38 6//38 24//38
f 25//39 26//39 7//39
f 25//40 15//40 26//40
f 15//41 2//41 26//41
f 27//42 28//42 8//42
f 27//43 19//43 28//43
f 19//44 3//44 28//44
f 29//45 30//45 9//45
f 29//46 21//46 30//46
f 21//47 4//47 30//47
f 31//48 32//48 10//48
f 31//49 22//49 32//49
f 22//50 5//50 32//50
f 26//51 33//51 7//51
f 26//52 23//52 33//52
f 23//53 11//53 33//53
f 28//54 34//54 8//54
f 28//55 25//55 34//55
f 25//56 7//56 34//56
f 30//57 35//57 9//57
f 30//58 27//58 35//58
f 27//59 8//59 35//59
f 32//60 36//60 10//60
f 32//61 29//61 36//61
f 29//62 9//62 36//62
f 24//63 37//63 11//63
f 24//64 31//64 37//64
f 31//65 10//65 37//65
f 38//66 39//66 12//66
f 38//67 33//67 39//67
f 33//68 11//68 39//68
f 40//69 38//69 12//69
f 40//70 34//70 38//70
f 34//71 7//71 38//71
f 41//72 40//72 12//72
f 41//73 35//73 40//73
f 35//74 8//74 40//74
f 42//75 41//75 12//75
f 42//76 36//76 41//76
f 36//77 9//77 41//77
f 39//78 42//78 12//78
f 39//79 37//79 42//79
f 37//80 10//80 42//80
o Cube
v 1.000000 -1.000000 -1.000000
v 1.000000 -1.000000 1.000000
v -1.000000 -1.000000 1.000000
v -1.000000 -1.000000 -1.000000
v 1.000000 1.000000 -0.999999
v 0.999999 1.000000 1.000001
v -1.000000 1.000000 1.000000
v -1.000000 1.000000 -1.000000
v 1.000000 -1.000000 0.000000
v 0.000000 -1.000000 -1.000000
v 1.000000 0.000000 -1.000000
v 0.000000 -1.000000 1.000000
v 1.000000 0.000000 1.000000
v -1.000000 -1.000000 -0.000000
v -1.000000 0.000000 1.000000
v -1.000000 0.000000 -1.000000
v 1.000000 1.000000 0.000001
v 0.000000 1.000000 -1.000000
v -0.000001 1.000000 1.000000
v -1.000000 1.000000 -0.000000
v 0.000000 -1.000000 -0.000000
v -0.000000 1.000000 0.000000
v 1.000000 0.000000 0.000000
v -0.000000 0.000000 1.000000
v -1.000000 0.000000 -0.000000
v 0.000000 0.000000 -1.000000
v 1.000000 -1.000000 0.500000
v -0.500000 -1.000000 -1.000000
v 1.000000 0.500000 -1.000000
v -0.500000 -1.000000 1.000000
v 1.000000 0.500000 1.000000
v -1.000000 -1.000000 -0.500000
v -1.000000 0.500000 1.000000
v -1.000000 0.500000 -1.000000
v 1.000000 1.000000 0.500001
v -0.500000 1.000000 -1.000000
v -0.500000 1.000000 1.000000
v -1.000000 1.000000 -0.500000
v 1.000000 -1.000000 -0.500000
v 0.500000 -1.000000 -1.000000
v 1.000000 -0.500000 -1.000000
v 0.500000 -1.000000 1.000000
v 1.000000 -0.500000 1.000000
v -1.000000 -1.000000 0.500000
v -1.000000 -0.500000 1.000000
v -1.000000 -0.500000 -1.000000
v 1.000000 1.000000 -0.499999
v 0.500000 1.000000 -1.000000
v 0.499999 1.000000 1.000000
v -1.000000 1.000000 0.500000
v 0.000000 -1.000000 0.500000
v 0.000000 -1.000000 -0.500000
v 0.500000 -1.000000 -0.000000
v -0.500000 -1.000000 -0.000000
v -0.500000 1.000000 0.000000
v 0.500000 1.000000 0.000000
v 0.000000 1.000000 -0.500000
v -0.000000 1.000000 0.500000
v 1.000000 0.500000 0.000000
v 1.000000 -0.500000 0.000000
v 1.000000 0.000000 -0.500000
v 1.000000 0.000000 0.500000
v -0.000000 0.500000 1.000000
v -0.000000 -0.500000 1.000000
v 0.500000 0.000000 1.000000
v -0.500000 0.000000 1.000000
v -1.000000 0.500000 -0.000000
v -1.000000 -0.500000 -0.000000
v -1.000000 0.000000 0.500000
v -1.000000 0.000000 -0.500000
v 0.000000 -0.500000 -1.000000
v 0.000000 0.500000 -1.000000
v 0.500000 0.000000 -1.000000
v -0.500000 0.000000 -1.000000
v -0.500000 -1.000000 0.500000
v -0.500000 1.000000 0.500000
v 1.000000 0.500000 0.500000
v -0.500000 0.500000 1.000000
v -1.000000 0.500000 -0.500000
v -0.500000 -0.500000 -1.000000
v 0.500000 -1.000000 0.500000
v 0.500000 -1.000000 -0.500000
v -0.500000 -1.000000 -0.500000
v -0.500000 1.000000 -0.500000
v 0.500000 1.000000 -0.500000
v 0.500000 1.000000 0.500000
v 1.000000 0.500000 -0.500000
v 1.000000 -0.500000 -0.500000
v 1.000000 -0.500000 0.500000
v 0.500000 0.500000 1.000000
v 0.500000 -0.500000 1.000000
v -0.500000 -0.500000 1.000000
v -1.000000 0.500000 0.500000
v -1.000000 -0.500000 0.500000
v -1.000000 -0.500000 -0.500000
v 0.500000 -0.500000 -1.000000
v 0.500000 0.500000 -1.000000
v -0.500000 0.500000 -1.000000
vn -1.000000 0.000000 -0.000000
vn 0.000000 1.000000 0.000000
vn 0.000000 -1.000000 0.000000
vn 1.000000 0.000000 0.000000
vn 0.000000 -0.000000 1.000000
vn 0.000000 -0.000000 -1.000000
usemtl Light
s off
f 103//81 65//81 101//81 129//81
usemtl WhiteWall
f 117//82 86//82 45//82 72//82
f 118//83 79//83 49//83 92//83
f 119//81 73//81 48//81 77//81
f 121//84 76//84 50//84 80//84
f 123//82 93//82 54//82 84//82
f 124//82 94//82 63//82 95//82
f 125//82 74//82 56//82 96//82
f 126//83 97//83 62//83 80//83
f 127//83 98//83 64//83 99//83
f 128//83 91//83 61//83 100//83
f 129//81 101//81 59//81 89//81
f 130//81 102//81 65//81 103//81
f 131//81 85//81 55//81 104//81
f 135//84 109//84 62//84 92//84
f 136//84 110//84 67//84 111//84
f 137//84 88//84 58//84 112//84
f 93//82 117//82 72//82 54//82
f 63//82 96//82 117//82 93//82
f 96//82 56//82 86//82 117//82
f 97//83 118//83 92//83 62//83
f 64//83 100//83 118//83 97//83
f 100//83 61//83 79//83 118//83
f 101//81 119//81 77//81 59//81
f 65//81 104//81 119//81 101//81
f 104//81 55//81 73//81 119//81
f 109//84 121//84 80//84 62//84
f 67//84 112//84 121//84 109//84
f 112//84 58//84 76//84 121//84
f 69//82 123//82 84//82 44//82
f 51//82 95//82 123//82 69//82
f 95//82 63//82 93//82 123//82
f 81//82 124//82 95//82 51//82
f 43//82 82//82 124//82 81//82
f 82//82 52//82 94//82 124//82
f 94//82 125//82 96//82 63//82
f 52//82 70//82 125//82 94//82
f 70//82 46//82 74//82 125//82
f 78//83 126//83 80//83 50//83
f 60//83 99//83 126//83 78//83
f 99//83 64//83 97//83 126//83
f 90//83 127//83 99//83 60//83
f 47//83 89//83 127//83 90//83
f 89//83 59//83 98//83 127//83
f 98//83 128//83 100//83 64//83
f 59//83 77//83 128//83 98//83
f 77//83 48//83 91//83 128//83
f 71//81 129//81 89//81 47//81
f 53//81 103//81 129//81 71//81
f 83//81 130//81 103//81 53//81
f 43//81 81//81 130//81 83//81
f 81//81 51//81 102//81 130//81
f 102//81 131//81 104//81 65//81
f 51//81 69//81 131//81 102//81
f 69//81 44//81 85//81 131//81
f 75//84 135//84 92//84 49//84
f 57//84 111//84 135//84 75//84
f 111//84 67//84 109//84 135//84
f 87//84 136//84 111//84 57//84
f 45//84 86//84 136//84 87//84
f 86//84 56//84 110//84 136//84
f 110//84 137//84 112//84 67//84
f 56//84 74//84 137//84 110//84
f 74//84 46//84 88//84 137//84
usemtl RedWall
f 122//85 88//85 46//85 70//85
f 138//85 113//85 52//85 82//85
f 139//85 114//85 68//85 115//85
f 140//85 76//85 58//85 116//85
f 113//85 122//85 70//85 52//85
f 68//85 116//85 122//85 113//85
f 116//85 58//85 88//85 122//85
f 83//85 138//85 82//85 43//85
f 53//85 115//85 138//85 83//85
f 115//85 68//85 113//85 138//85
f 71//85 139//85 115//85 53//85
f 47//85 90//85 139//85 71//85
f 90//85 60//85 114//85 139//85
f 114//85 140//85 116//85 68//85
f 60//85 78//85 140//85 114//85
f 78//85 50//85 76//85 140//85
usemtl BlueWall
f 120//86 75//86 49//86 79//86
f 132//86 105//86 61//86 91//86
f 133//86 106//86 66//86 107//86
f 134//86 87//86 57//86 108//86
f 105//86 120//86 79//86 61//86
f 66//86 108//86 120//86 105//86
f 108//86 57//86 75//86 120//86
f 73//86 132//86 91//86 48//86
f 55//86 107//86 132//86 73//86
f 107//86 66//86 105//86 132//86
f 85//86 133//86 107//86 55//86
f 44//86 84//86 133//86 85//86
f 84//86 54//86 106//86 133//86
f 106//86 134//86 108//86 66//86
f 54//86 72//86 134//86 106//86
f 72//86 45//86 87//86 134//86
