# Blender v2.72 (sub 0) OBJ File: 'CornellBox_quads.blend'
# www.blender.org
mtllib test_quads.mtl
o Cube
v 1.000000 -1.000000 -1.000000
v 1.000000 -1.000000 1.000000
v -1.000000 -1.000000 1.000000
v -1.000000 -1.000000 -1.000000
v -1.000000 0.000000 -1.000000
v 0.000000 0.000000 -1.000000
v 1.000000 -1.000000 0.000000
v 0.000000 -1.000000 -1.000000
v 0.000000 -1.000000 1.000000
v -1.000000 -1.000000 -0.000000
v 0.000000 -1.000000 -0.000000
v 1.000000 1.000000 -0.999999
v 0.999999 1.000000 1.000001
v -1.000000 1.000000 -1.000000
v -1.000000 1.000000 1.000000
v 1.000000 1.000000 0.000001
v 0.000000 1.000000 -1.000000
v -0.000001 1.000000 1.000000
v -1.000000 1.000000 -0.000000
v 1.000000 0.000000 0.000000
v -0.000000 1.000000 0.000000
v -1.000000 0.000000 1.000000
v -1.000000 0.000000 -0.000000
v 1.000000 0.000000 1.000000
v 1.000000 0.000000 -1.000000
v -0.500000 1.000000 1.000000
v -1.000000 1.000000 0.500000
v -0.500000 1.000000 0.000000
v -0.000000 1.000000 0.500000
v -0.500000 1.000000 0.500000
v 1.000000 1.000000 -0.499999
v 0.500000 1.000000 -1.000000
v 0.500000 1.000000 0.000000
v 0.000000 1.000000 -0.500000
v 0.500000 1.000000 -0.500000
v 0.499999 1.000000 1.000000
v -0.500000 1.000000 -1.000000
v -1.000000 1.000000 -0.500000
v -0.500000 1.000000 -0.500000
v 0.500000 1.000000 0.500000
v 1.000000 1.000000 0.500001
vn 0.000000 -1.000000 0.000000
vn 0.000000 1.000000 0.000000
vn -0.000000 -0.000000 1.000000
vn 1.000000 0.000000 0.000000
vn -1.000000 -0.000000 -0.000000
usemtl Light
s off
f 35//1 33//1 21//1 34//1
f 21//1 29//1 30//1 28//1
f 33//1 40//1 29//1 21//1
f 28//1 39//1 34//1 21//1
usemtl WhiteWall
f 11//2 10//2 3//2 9//2
f 30//1 26//1 15//1 27//1
f 8//3 6//3 5//3 4//3
f 7//2 11//2 9//2 2//2
f 1//2 8//2 11//2 7//2
f 8//2 4//2 10//2 11//2
f 13//1 36//1 40//1 41//1
f 16//1 41//1 40//1 33//1
f 1//3 25//3 6//3 8//3
f 28//1 30//1 27//1 19//1
f 29//1 18//1 26//1 30//1
f 32//1 35//1 34//1 17//1
f 12//1 31//1 35//1 32//1
f 31//1 16//1 33//1 35//1
f 36//1 18//1 29//1 40//1
f 19//1 38//1 39//1 28//1
f 14//1 37//1 39//1 38//1
f 34//1 39//1 37//1 17//1
f 14//3 5//3 6//3 17//3
f 6//3 25//3 12//3 17//3
usemtl RedWall
f 22//4 23//4 19//4 15//4
f 5//4 14//4 19//4 23//4
f 10//4 4//4 5//4 23//4
f 23//4 22//4 3//4 10//4
usemtl BlueWall
f 2//5 24//5 20//5 7//5
f 7//5 20//5 25//5 1//5
f 20//5 16//5 12//5 25//5
f 13//5 16//5 20//5 24//5
