# Blender v2.72 (sub 0) OBJ File: 'CornellBox.blend'
# www.blender.org
mtllib test.mtl
o Cube
v 1.000000 -1.000000 -1.000000
v 1.000000 -1.000000 1.000000
v -1.000000 -1.000000 1.000000
v -1.000000 -1.000000 -1.000000
v 1.000000 1.000000 -0.999999
v 0.999999 1.000000 1.000001
v -1.000000 1.000000 1.000000
v -1.000000 1.000000 -1.000000
v -0.292893 -1.000000 -0.292893
v 0.292893 -1.000000 0.292893
v -0.000000 1.000000 0.000000
v 0.707107 1.000000 0.000000
v -0.000000 1.000000 0.707107
v -0.707107 1.000000 -0.000000
v 0.000000 1.000000 -0.707107
v 0.583726 1.000000 0.388234
v 0.583726 1.000000 -0.388233
v -0.388234 1.000000 0.583726
v 0.388233 1.000000 0.583726
v -0.583726 1.000000 -0.388234
v -0.583726 1.000000 0.388234
v 0.388234 1.000000 -0.583726
v -0.388234 1.000000 -0.583726
v 1.000000 0.000000 0.000000
v -1.000000 -0.000000 -0.000000
v 0.000000 0.000000 -1.000000
v -1.000000 -0.707107 -0.000000
v 0.000000 0.707107 -1.000000
v 1.000000 -0.707107 0.000000
v 1.000000 0.000000 0.707107
v 1.000000 0.707107 0.000001
v 1.000000 -0.000000 -0.707106
v -1.000000 -0.000000 -0.707107
v -1.000000 0.707107 -0.000000
v -1.000000 -0.000000 0.707107
v -0.707107 0.000000 -1.000000
v 0.000000 -0.707107 -1.000000
v 0.707107 0.000000 -1.000000
vn -0.000000 -0.000000 1.000000
vn 0.000000 1.000000 0.000000
vn 0.000000 -1.000000 0.000000
vn -1.000000 -0.000000 0.000000
vn 1.000000 -0.000000 0.000000
usemtl WhiteWall
s off
f 5//1 8//1 28//1
f 2//2 1//2 10//2
f 4//2 3//2 9//2
f 3//2 1//2 9//2
f 1//2 4//2 9//2
f 1//2 3//2 10//2
f 3//2 2//2 10//2
f 23//3 20//3 8//3
f 17//3 22//3 5//3
f 19//3 16//3 6//3
f 21//3 18//3 7//3
f 13//3 6//3 7//3
f 12//3 6//3 16//3
f 5//3 12//3 17//3
f 13//3 7//3 18//3
f 6//3 13//3 19//3
f 14//3 8//3 20//3
f 7//3 14//3 21//3
f 15//3 5//3 22//3
f 8//3 15//3 23//3
f 7//3 8//3 14//3
f 5//3 6//3 12//3
f 8//3 5//3 15//3
f 8//1 4//1 36//1
f 4//1 1//1 37//1
f 1//1 5//1 38//1
f 8//1 26//1 28//1
f 26//1 5//1 28//1
f 4//1 26//1 36//1
f 26//1 8//1 36//1
f 1//1 26//1 37//1
f 26//1 4//1 37//1
f 5//1 26//1 38//1
f 26//1 1//1 38//1
usemtl RedWall
f 1//4 2//4 29//4
f 2//4 6//4 30//4
f 6//4 5//4 31//4
f 5//4 1//4 32//4
f 2//4 24//4 29//4
f 24//4 1//4 29//4
f 6//4 24//4 30//4
f 24//4 2//4 30//4
f 5//4 24//4 31//4
f 24//4 6//4 31//4
f 1//4 24//4 32//4
f 24//4 5//4 32//4
usemtl BlueWall
f 3//5 4//5 27//5
f 4//5 8//5 33//5
f 8//5 7//5 34//5
f 7//5 3//5 35//5
f 4//5 25//5 27//5
f 25//5 3//5 27//5
f 8//5 25//5 33//5
f 25//5 4//5 33//5
f 7//5 25//5 34//5
f 25//5 8//5 34//5
f 3//5 25//5 35//5
f 25//5 7//5 35//5
usemtl Light
f 22//3 17//3 11//3
f 16//3 19//3 11//3
f 18//3 21//3 11//3
f 20//3 23//3 11//3
f 11//3 12//3 16//3
f 12//3 11//3 17//3
f 11//3 13//3 18//3
f 13//3 11//3 19//3
f 11//3 14//3 20//3
f 14//3 11//3 21//3
f 11//3 15//3 22//3
f 15//3 11//3 23//3
