# Blender v2.72 (sub 0) OBJ File: ''
# www.blender.org
mtllib untitled_quads.mtl
o Cube.001
v 0.500000 1.000000 -0.500000
v 0.500000 1.000000 0.000000
v 0.000000 1.000000 0.000000
v 0.000000 1.000000 -0.500000
v 0.000000 1.000000 0.500000
v -0.500000 1.000000 0.500000
v -0.500000 1.000000 0.000000
v 0.500000 1.000000 0.500000
v -0.500000 1.000000 -0.500000
v 0.000000 -1.000000 -0.000000
v -1.000000 -1.000000 -0.000000
v -1.000000 -1.000000 1.000000
v 0.000000 -1.000000 1.000000
v -0.500000 1.000000 1.000000
v -1.000000 1.000000 1.000000
v -1.000000 1.000000 0.500000
v 0.000000 -1.000000 -1.000000
v 0.000000 0.000000 -1.000000
v -1.000000 0.000000 -1.000000
v -1.000000 -1.000000 -1.000000
v 1.000000 -1.000000 -0.000000
v 1.000000 -1.000000 1.000000
v 1.000000 -1.000000 -1.000000
v 0.999999 1.000000 1.000001
v 0.499999 1.000000 1.000000
v 1.000000 1.000000 0.500001
v 1.000000 1.000000 0.000001
v 1.000000 0.000000 -1.000000
v -1.000000 1.000000 0.000000
v -0.000001 1.000000 1.000000
v 0.500000 1.000000 -1.000000
v 0.000000 1.000000 -1.000000
v 1.000000 1.000000 -0.999999
v 1.000000 1.000000 -0.499999
v -1.000000 1.000000 -0.500000
v -1.000000 1.000000 -1.000000
v -0.500000 1.000000 -1.000000
v -1.000000 -0.000000 1.000000
v -1.000000 0.000000 0.000000
v 1.000000 -0.000000 1.000000
v 1.000000 0.000000 0.000000
v -0.500000 0.000000 -1.000000
v 0.000000 0.500000 -1.000000
v -1.000000 0.500000 -1.000000
v -0.500000 0.500000 -1.000000
v 0.500000 0.000000 -1.000000
v 1.000000 0.500000 -0.999999
v 0.500000 0.500000 -1.000000
v -0.500000 -1.000000 -1.000000
v 0.000000 -0.500000 -1.000000
v -1.000000 -0.500000 -1.000000
v -0.500000 -0.500000 -1.000000
v 1.000000 -0.500000 -1.000000
v 0.500000 -1.000000 -1.000000
v 0.500000 -0.500000 -1.000000
v 0.500000 -1.000000 -0.000000
v -0.500000 -1.000000 -0.000000
v -1.000000 0.000000 -0.500000
v -1.000000 -1.000000 -0.500000
v 1.000000 -0.500000 -0.000000
v 1.000000 -1.000000 -0.500000
v 0.000000 -1.000000 -0.500000
v 1.000000 0.000000 -0.500000
v -1.000000 -0.500000 -0.000000
v -1.000000 -0.500000 -0.500000
v -0.500000 -1.000000 -0.500000
v 0.500000 -1.000000 -0.500000
v 1.000000 -0.500000 -0.500000
v -1.000000 0.500000 1.000000
v -1.000000 -0.500000 1.000000
v -1.000000 0.500000 0.000000
v -1.000000 -1.000000 0.500000
v -1.000000 -0.000000 0.500000
v -1.000000 -0.500000 0.500000
v -1.000000 0.500000 0.500000
v -1.000000 0.500000 -0.500000
v 1.000000 -0.500000 1.000000
v 1.000000 0.500000 0.000001
v 1.000000 -0.000000 0.500000
v 1.000000 -1.000000 0.500000
v 1.000000 0.500000 1.000001
v 1.000000 -0.500000 0.500000
v 1.000000 0.500000 -0.499999
v 1.000000 0.500000 0.500001
v 0.000000 -1.000000 0.500000
v 0.500000 -1.000000 1.000000
v -0.500000 -1.000000 1.000000
v -0.500000 -1.000000 0.500000
v 0.500000 -1.000000 0.500000
vn -1.000000 0.000000 0.000000
vn 1.000000 0.000000 0.000000
vn 0.000000 1.000000 0.000000
vn 0.000000 -1.000000 -0.000000
vn 0.000000 -0.000000 1.000000
usemtl BlueWall
s off
f 27//1 34//1 83//1 78//1
f 34//1 33//1 47//1 83//1
f 47//1 28//1 63//1 83//1
f 60//1 68//1 61//1 21//1
f 61//1 68//1 53//1 23//1
f 53//1 68//1 63//1 28//1
f 60//1 41//1 63//1 68//1
f 78//1 83//1 63//1 41//1
f 26//1 27//1 78//1 84//1
f 24//1 26//1 84//1 81//1
f 78//1 41//1 79//1 84//1
f 81//1 84//1 79//1 40//1
f 60//1 82//1 79//1 41//1
f 77//1 40//1 79//1 82//1
f 21//1 80//1 82//1 60//1
f 80//1 22//1 77//1 82//1
usemtl RedWall
f 11//2 59//2 65//2 64//2
f 59//2 20//2 51//2 65//2
f 29//2 16//2 75//2 71//2
f 29//2 71//2 76//2 35//2
f 39//2 64//2 65//2 58//2
f 16//2 15//2 69//2 75//2
f 51//2 19//2 58//2 65//2
f 35//2 76//2 44//2 36//2
f 39//2 58//2 76//2 71//2
f 44//2 76//2 58//2 19//2
f 71//2 75//2 73//2 39//2
f 69//2 38//2 73//2 75//2
f 38//2 70//2 74//2 73//2
f 73//2 74//2 64//2 39//2
f 72//2 74//2 70//2 12//2
f 64//2 74//2 72//2 11//2
usemtl WhiteWall
f 57//3 11//3 72//3 88//3
f 6//4 14//4 15//4 16//4
f 19//5 51//5 52//5 42//5
f 10//3 57//3 88//3 85//3
f 24//4 25//4 8//4 26//4
f 27//4 26//4 8//4 2//4
f 50//5 55//5 46//5 18//5
f 7//4 6//4 16//4 29//4
f 5//4 30//4 14//4 6//4
f 31//4 1//4 4//4 32//4
f 1//4 31//4 33//4 34//4
f 2//4 1//4 34//4 27//4
f 25//4 30//4 5//4 8//4
f 29//4 35//4 9//4 7//4
f 36//4 37//4 9//4 35//4
f 4//4 9//4 37//4 32//4
f 36//5 44//5 45//5 37//5
f 37//5 45//5 43//5 32//5
f 19//5 42//5 45//5 44//5
f 42//5 18//5 43//5 45//5
f 31//5 32//5 43//5 48//5
f 43//5 18//5 46//5 48//5
f 28//5 47//5 48//5 46//5
f 33//5 31//5 48//5 47//5
f 50//5 18//5 42//5 52//5
f 20//5 49//5 52//5 51//5
f 49//5 17//5 50//5 52//5
f 53//5 28//5 46//5 55//5
f 50//5 17//5 54//5 55//5
f 23//5 53//5 55//5 54//5
f 62//3 17//3 49//3 66//3
f 49//3 20//3 59//3 66//3
f 57//3 66//3 59//3 11//3
f 57//3 10//3 62//3 66//3
f 56//3 67//3 62//3 10//3
f 62//3 67//3 54//3 17//3
f 54//3 67//3 61//3 23//3
f 56//3 21//3 61//3 67//3
f 72//3 12//3 87//3 88//3
f 85//3 88//3 87//3 13//3
f 85//3 13//3 86//3 89//3
f 10//3 85//3 89//3 56//3
f 56//3 89//3 80//3 21//3
f 86//3 22//3 80//3 89//3
usemtl Light
f 1//4 2//4 3//4 4//4
f 3//4 5//4 6//4 7//4
f 2//4 8//4 5//4 3//4
f 7//4 9//4 4//4 3//4
l 24 27
l 15 29
l 32 33
l 29 36
l 32 36
l 27 33
